<?xml version="1.0" encoding="utf-8"?>
<!-- Generator: Adobe Illustrator 27.5.0, SVG Export Plug-In . SVG Version: 6.00 Build 0)  -->
<svg version="1.1" id="Layer_1" xmlns="http://www.w3.org/2000/svg" xmlns:xlink="http://www.w3.org/1999/xlink" x="0px" y="0px"
	 viewBox="0 0 16 21" style="enable-background:new 0 0 16 21;" xml:space="preserve">
<style type="text/css">
	.st0{fill:#FFFFFF;}
</style>
<path class="st0" d="M6,12.9c0-0.3,0.2-0.5,0.5-0.5h3c0.3,0,0.5,0.2,0.5,0.5s-0.2,0.5-0.5,0.5h-3C6.2,13.4,6,13.2,6,12.9z M3,8.5
	c0-1.3,1.2-2.3,2.5-2.2c1.6,0.2,3.3,0.2,4.9,0C11.8,6.2,13,7.2,13,8.5v1.2c0,0.5-0.3,0.9-0.8,0.9c-0.8,0.1-2.3,0.3-4.2,0.3
	s-3.4-0.2-4.2-0.3C3.3,10.5,3,10.1,3,9.6V8.5z M7.5,7.7c-0.1,0-0.2,0-0.2,0.1L6.4,8.6c-0.6,0-1.2-0.1-1.9-0.2
	c-0.1,0-0.3,0.1-0.3,0.2c0,0.1,0.1,0.2,0.2,0.3C5,9,5.7,9.1,6.5,9.1c0.1,0,0.1,0,0.2-0.1l0.8-0.7L8.3,10c0.1,0.1,0.2,0.2,0.3,0.1
	c0,0,0,0,0.1-0.1l0.9-1c0.6,0,1.3-0.1,1.9-0.2c0.1,0,0.2-0.2,0.2-0.3c0-0.1-0.1-0.2-0.3-0.2c-0.5,0.1-1.2,0.1-2,0.2
	c-0.1,0-0.1,0-0.2,0.1L8.6,9.5L7.7,7.8C7.7,7.7,7.6,7.7,7.5,7.7z"/>
<path class="st0" d="M8.5,2.3C9,2,9.1,1.4,8.9,0.9C8.6,0.4,8,0.3,7.5,0.6S6.9,1.4,7.1,1.9c0.1,0.2,0.2,0.3,0.4,0.4v1.1h-2
	C3,3.4,1,5.4,1,7.9v0.5c-0.6,0-1,0.4-1,1v2c0,0.6,0.4,1,1,1v1c0,1.1,0.9,2,2,2h10c1.1,0,2-0.9,2-2v-1c0.6,0,1-0.4,1-1v-2
	c0-0.6-0.4-1-1-1V7.9c0-2.5-2-4.5-4.5-4.5h-2V2.3z M14,7.9v5.5c0,0.6-0.4,1-1,1H3c-0.6,0-1-0.4-1-1V7.9C2,6,3.6,4.4,5.5,4.4h5
	C12.4,4.4,14,6,14,7.9z"/>
<g>
	<path class="st0" d="M0,17.9h0.8c0.6,0,0.9,0.2,0.9,0.6c0,0.1,0,0.2-0.1,0.3C1.5,18.9,1.4,19,1.3,19v0c0.1,0,0.2,0.1,0.3,0.2
		c0.1,0.1,0.1,0.2,0.1,0.4c0,0.2-0.1,0.4-0.3,0.5c-0.2,0.1-0.4,0.2-0.7,0.2H0V17.9z M0.8,18.9c0.1,0,0.2,0,0.3-0.1
		c0.1-0.1,0.1-0.1,0.1-0.2c0-0.1,0-0.2-0.1-0.2c-0.1,0-0.2-0.1-0.3-0.1H0.5v0.6H0.8z M0.8,19.9c0.3,0,0.5-0.1,0.5-0.3
		c0-0.1,0-0.2-0.1-0.2c-0.1,0-0.2-0.1-0.4-0.1H0.5v0.7H0.8z"/>
	<path class="st0" d="M2.3,20.2c-0.1-0.1-0.1-0.3-0.1-0.5v-1.1h0.5v1.1c0,0.1,0,0.2,0.1,0.3c0,0.1,0.1,0.1,0.2,0.1
		c0.1,0,0.1,0,0.2,0c0,0,0.1-0.1,0.2-0.2v-1.2h0.5v1.8H3.3l0-0.3h0c-0.1,0.1-0.2,0.2-0.3,0.2c-0.1,0.1-0.2,0.1-0.3,0.1
		C2.5,20.3,2.4,20.3,2.3,20.2z"/>
	<path class="st0" d="M4.1,20l0.8-1.1H4.2v-0.4h1.3v0.3l-0.8,1.1h0.8v0.4H4.1V20z"/>
	<path class="st0" d="M5.8,20l0.8-1.1H5.8v-0.4h1.3v0.3l-0.8,1.1h0.8v0.4H5.8V20z"/>
	<path class="st0" d="M7.4,20l0.8-1.1H7.5v-0.4h1.3v0.3L8,19.9h0.8v0.4H7.4V20z"/>
	<path class="st0" d="M9.6,18.3H8.9v-0.4h1.8v0.4h-0.7v2H9.6V18.3z"/>
	<path class="st0" d="M12.3,19.5h-1.1c0,0.1,0.1,0.2,0.2,0.3c0.1,0.1,0.2,0.1,0.3,0.1c0.1,0,0.3,0,0.4-0.1l0.2,0.3
		c-0.1,0.1-0.2,0.1-0.3,0.1c-0.1,0-0.2,0.1-0.3,0.1c-0.2,0-0.3,0-0.5-0.1c-0.1-0.1-0.2-0.2-0.3-0.3c-0.1-0.1-0.1-0.3-0.1-0.5
		c0-0.2,0-0.4,0.1-0.5c0.1-0.1,0.2-0.3,0.3-0.3c0.1-0.1,0.3-0.1,0.4-0.1c0.2,0,0.4,0.1,0.6,0.2c0.1,0.2,0.2,0.4,0.2,0.6
		C12.3,19.4,12.3,19.5,12.3,19.5z M11.9,19.2c0-0.1,0-0.2-0.1-0.3c-0.1-0.1-0.1-0.1-0.2-0.1c-0.1,0-0.2,0-0.2,0.1
		c-0.1,0.1-0.1,0.2-0.1,0.3H11.9z"/>
	<path class="st0" d="M13,20.2c-0.1-0.1-0.2-0.2-0.3-0.3c-0.1-0.1-0.1-0.3-0.1-0.5c0-0.2,0-0.4,0.1-0.5s0.2-0.3,0.3-0.3
		c0.1-0.1,0.3-0.1,0.5-0.1c0.2,0,0.4,0.1,0.5,0.2L13.8,19c0,0-0.1-0.1-0.1-0.1c0,0-0.1,0-0.1,0c-0.1,0-0.2,0-0.3,0.1
		c-0.1,0.1-0.1,0.2-0.1,0.4c0,0.2,0,0.3,0.1,0.4c0.1,0.1,0.2,0.1,0.3,0.1c0.1,0,0.2,0,0.3-0.1l0.2,0.3c-0.1,0.1-0.2,0.1-0.3,0.2
		c-0.1,0-0.2,0.1-0.3,0.1C13.3,20.3,13.2,20.3,13,20.2z"/>
	<path class="st0" d="M14.4,17.9h0.5v0.5l0,0.3c0.1-0.1,0.2-0.1,0.3-0.2c0.1,0,0.2-0.1,0.3-0.1c0.2,0,0.3,0.1,0.4,0.2
		c0.1,0.1,0.1,0.3,0.1,0.5v1.1h-0.5v-1.1c0-0.1,0-0.2-0.1-0.3c0-0.1-0.1-0.1-0.2-0.1c-0.1,0-0.1,0-0.2,0C15,19,15,19,14.9,19.1v1.2
		h-0.5V17.9z"/>
</g>
</svg>
